<svg width="142" height="33" viewBox="0 0 142 33" fill="none" xmlns="http://www.w3.org/2000/svg">
<path d="M34.9863 5.20247V10.6779C34.9863 12.9645 35.4058 13.3212 36.3707 13.426L36.5385 13.447C36.6643 13.468 36.6853 13.5309 36.6853 13.6568V13.7617C36.6853 13.8876 36.6434 13.9295 36.4546 13.9295H32.9308C32.721 13.9295 32.6581 13.8876 32.6581 13.7197V13.6149C32.6581 13.489 32.721 13.447 32.9098 13.4051L33.0776 13.3841C33.8747 13.3211 34.3781 12.8177 34.3781 10.6359V5.89476C34.3781 4.32137 33.7698 3.79691 32.8888 3.79691H32.784C32.6371 3.79691 32.5742 3.73397 32.5742 3.62908V3.48223C32.5742 3.35636 32.6371 3.27244 32.8888 3.27244H34.8605C35.3639 3.27244 35.4688 3.33538 35.7205 3.67104L41.8661 11.3072V6.20943C41.8661 4.3843 41.4047 3.9018 40.4608 3.79691L40.293 3.77593C40.1462 3.75495 40.0623 3.71299 40.0623 3.56614V3.46125C40.0623 3.3144 40.1252 3.25146 40.314 3.25146H43.8377C44.0475 3.25146 44.1104 3.29342 44.1104 3.41929V3.54516C44.1104 3.65006 44.0475 3.71299 43.9007 3.75495L43.7329 3.77593C42.8939 3.83886 42.4954 4.3843 42.4954 6.18846V13.8246C42.4954 13.9715 42.4324 14.0764 42.2646 14.0764H42.2227C42.0968 14.0764 42.0129 14.0134 41.9081 13.8666L34.9863 5.20247Z" fill="white"/>
<path d="M54.8699 13.4474H54.9748C55.1007 13.4683 55.1426 13.5103 55.1426 13.6781V13.783C55.1426 13.9299 55.1007 13.9928 54.9329 13.9928H50.8847C50.7589 13.9928 50.675 13.9509 50.675 13.825V13.6991C50.675 13.5732 50.7379 13.4893 50.9057 13.4683H51.0315C51.9964 13.4474 52.1432 12.9858 51.8286 12.1677L51.0315 10.0908H47.2561L46.5639 11.9579C46.2493 12.818 46.4381 13.4264 47.34 13.4474L47.4448 13.4683C47.6126 13.4683 47.6965 13.5313 47.6965 13.6781V13.783C47.6965 13.9299 47.6546 13.9928 47.4868 13.9928H44.3615C44.1937 13.9928 44.0889 13.9509 44.0889 13.783V13.6991C44.0889 13.5523 44.1518 13.4683 44.3196 13.4683H44.3825C45.0747 13.4683 45.5571 12.818 45.8717 11.9369L48.7453 4.38465L48.6824 4.25878C48.6194 4.049 48.6194 3.96508 48.7663 3.86019C49.018 3.73432 49.3745 3.39866 49.5423 3.18888C49.6053 3.12594 49.6472 3.08398 49.7731 3.08398C49.8779 3.08398 49.9199 3.14692 49.9409 3.23083L53.4856 12.2726C53.8841 12.9229 54.2197 13.4264 54.8699 13.4474ZM47.4868 9.56635H50.8847L49.1438 5.05596L47.4868 9.56635Z" fill="white"/>
<path d="M62.7362 4.11158C62.8621 3.9018 62.8201 3.79691 62.6314 3.79691H60.1773C59.0027 3.79691 58.2686 4.23745 57.5764 5.22344C57.4506 5.37029 57.052 6.02063 56.8842 6.27237C56.8213 6.39824 56.7584 6.41922 56.6116 6.37726L56.5067 6.33531C56.4018 6.31433 56.3599 6.23041 56.4018 6.08356L57.1569 3.67104C57.2408 3.33538 57.3667 3.25146 57.7232 3.25146H64.7079C64.8337 3.25146 64.8757 3.29342 64.8757 3.39831V3.48223C64.8757 3.6081 64.8547 3.69201 64.7918 3.79691L58.6252 13.1533C58.4993 13.3212 58.5622 13.468 58.751 13.468H61.7294C63.1977 13.468 63.9528 12.8386 64.5191 11.9785C64.645 11.8107 64.9386 11.3072 65.0854 11.0345C65.1483 10.8876 65.1903 10.8667 65.3581 10.8876L65.442 10.9086C65.5678 10.9296 65.5888 10.9716 65.5469 11.1394L64.8966 13.5519C64.8127 13.9086 64.7498 13.9715 64.3094 13.9715H56.6116C56.4857 13.9715 56.4438 13.9295 56.4438 13.8246V13.7617C56.4438 13.6568 56.4647 13.5519 56.5277 13.447L62.7362 4.11158Z" fill="white"/>
<path d="M76.9984 13.4474H77.1243C77.2501 13.4683 77.2921 13.5103 77.2921 13.6781V13.783C77.2921 13.9299 77.2501 13.9928 77.0823 13.9928H73.0342C72.9083 13.9928 72.8244 13.9509 72.8244 13.825V13.6991C72.8244 13.5732 72.8873 13.4893 73.0551 13.4683H73.181C74.1458 13.4474 74.2926 12.9858 73.978 12.1677L73.181 10.0908H69.4055L68.7133 11.9579C68.3987 12.818 68.5875 13.4264 69.4894 13.4474L69.5943 13.4683C69.7621 13.4683 69.846 13.5313 69.846 13.6781V13.783C69.846 13.9299 69.804 13.9928 69.6362 13.9928H66.511C66.3432 13.9928 66.2383 13.9509 66.2383 13.783V13.6991C66.2383 13.5523 66.3012 13.4683 66.469 13.4683H66.5319C67.2241 13.4683 67.7065 12.818 68.0211 11.9369L70.8947 4.38465L70.8318 4.25878C70.7689 4.049 70.7689 3.96508 70.9157 3.86019C71.1674 3.73432 71.524 3.39866 71.6918 3.18888C71.7547 3.12594 71.7966 3.08398 71.9225 3.08398C72.0483 3.08398 72.0693 3.14692 72.0903 3.23083L75.635 12.2726C76.0126 12.9229 76.3482 13.4264 76.9984 13.4474ZM69.6152 9.56635H73.0132L71.2723 5.05596L69.6152 9.56635Z" fill="white"/>
<path d="M81.571 8.87376V12.1884C81.571 13.1534 81.8437 13.4261 82.7456 13.4261H82.8505C83.0183 13.4261 83.1022 13.489 83.1022 13.6569V13.7618C83.1022 13.8876 83.0602 13.9296 82.8295 13.9296H78.6345C78.4667 13.9296 78.3828 13.8876 78.3828 13.7198V13.5939C78.3828 13.4681 78.4457 13.4261 78.6555 13.4261H78.7604C79.6833 13.4261 79.935 13.1534 79.935 12.1884V5.05567C79.935 4.06968 79.6623 3.81794 78.7184 3.81794H78.6555C78.4877 3.81794 78.4038 3.755 78.4038 3.58717V3.48228C78.4038 3.35641 78.4457 3.31445 78.6765 3.31445H83.4168C85.4723 3.31445 86.8986 4.19555 86.8986 5.9997C86.8986 7.38428 85.9128 8.41223 84.2768 8.66397C84.5494 8.8318 84.7382 9.04159 84.948 9.35626L87.0454 12.3981C87.5069 13.0904 87.9054 13.4681 88.7654 13.4681C88.9122 13.4681 88.9961 13.531 88.9961 13.6778V13.8037C88.9961 13.9296 88.9332 13.9715 88.7654 13.9715H86.6679C86.2484 13.9715 86.1435 13.9086 85.9547 13.6149L83.207 9.56605C82.8505 9.06257 82.5988 8.87376 82.0115 8.87376H81.571ZM81.571 8.37027H82.7456C84.3397 8.37027 85.2416 7.42624 85.2416 6.12557C85.2416 4.78295 84.5494 3.81794 82.9134 3.81794H81.9695C81.6129 3.81794 81.55 3.90185 81.55 4.23751V8.37027H81.571Z" fill="white"/>
<path d="M90.0449 13.7618V13.6359C90.0449 13.51 90.0869 13.4681 90.3176 13.4681H90.4015C91.3663 13.4681 91.5971 13.1744 91.5971 12.2303V5.05567C91.5971 4.06968 91.3244 3.81794 90.3595 3.81794H90.2966C90.1288 3.81794 90.0449 3.755 90.0449 3.58717V3.48228C90.0449 3.35641 90.0869 3.31445 90.3176 3.31445H94.953C97.1974 3.31445 98.2251 4.3424 98.2251 5.76894C98.2251 6.96471 97.3861 7.92972 96.1067 8.22342C97.5959 8.39125 98.7495 9.35626 98.7495 10.8457C98.7495 12.6709 97.4491 13.9925 95.016 13.9925H90.2756C90.1078 13.9506 90.0449 13.9086 90.0449 13.7618ZM93.2121 8.11853L94.3867 8.09755C95.8969 8.07657 96.5891 7.04863 96.5891 5.87383C96.5891 4.42631 95.8969 3.79696 94.4916 3.79696H93.6107C93.296 3.79696 93.2121 3.85989 93.2121 4.19555V8.11853V8.11853ZM93.2121 8.66397V11.8737C93.2121 13.0275 93.5897 13.4261 94.6384 13.4261H95.0369C96.4003 13.4261 97.0925 12.2933 97.0925 10.8877C97.0925 9.20941 96.1276 8.55908 94.2818 8.60104L93.2121 8.66397Z" fill="white"/>
<path d="M110.118 13.4474H110.223C110.349 13.4683 110.391 13.5103 110.391 13.6781V13.783C110.391 13.9299 110.349 13.9928 110.181 13.9928H106.133C106.007 13.9928 105.923 13.9509 105.923 13.825V13.6991C105.923 13.5732 105.986 13.4893 106.154 13.4683H106.28C107.244 13.4474 107.391 12.9858 107.077 12.1677L106.28 10.0908H102.504L101.812 11.9579C101.497 12.818 101.686 13.4264 102.588 13.4474L102.693 13.4683C102.861 13.4683 102.945 13.5313 102.945 13.6781V13.783C102.945 13.9299 102.903 13.9928 102.735 13.9928H99.6096C99.4418 13.9928 99.3369 13.9509 99.3369 13.783V13.6991C99.3369 13.5523 99.3998 13.4683 99.5676 13.4683H99.6306C100.323 13.4683 100.805 12.818 101.12 11.9369L103.993 4.38465L103.93 4.25878C103.867 4.049 103.867 3.96508 104.014 3.86019C104.266 3.73432 104.623 3.39866 104.79 3.18888C104.853 3.12594 104.895 3.08398 105.021 3.08398C105.147 3.08398 105.168 3.14692 105.189 3.23083L108.734 12.2726C109.153 12.9229 109.468 13.4264 110.118 13.4474ZM102.735 9.56635H106.133L104.392 5.05596L102.735 9.56635Z" fill="white"/>
<path d="M111.44 4.95076C110.978 4.15358 110.685 3.81792 110.034 3.77596C109.867 3.77596 109.804 3.71303 109.804 3.56618V3.46129C109.804 3.33541 109.867 3.29346 110.034 3.29346H113.81C113.936 3.29346 114.02 3.33541 114.02 3.46129V3.56618C114.02 3.71303 113.978 3.79694 113.789 3.79694H113.663C112.971 3.81792 112.866 4.30043 113.16 4.82489L115.467 8.72689L117.543 5.3074C118.026 4.53119 117.9 3.8389 117.166 3.79694H117.019C116.851 3.79694 116.788 3.75498 116.788 3.58716V3.48226C116.788 3.35639 116.851 3.31444 117.019 3.31444H120.039C120.27 3.31444 120.312 3.35639 120.312 3.52422V3.60813C120.312 3.75498 120.249 3.81792 120.081 3.8389C119.326 3.85988 118.844 4.44728 118.194 5.45424L115.74 9.35625V12.2513C115.74 13.2163 116.012 13.489 116.935 13.489H117.04C117.208 13.489 117.313 13.552 117.313 13.7198V13.8247C117.313 13.9505 117.25 13.9925 117.04 13.9925H112.803C112.635 13.9925 112.551 13.9505 112.551 13.7827V13.6359C112.551 13.51 112.614 13.468 112.824 13.468H112.929C113.852 13.468 114.104 13.1953 114.104 12.2303V9.46114L111.44 4.95076Z" fill="white"/>
<path d="M124.927 3.79696C124.612 3.79696 124.57 3.88087 124.57 4.15359V8.16049H126.143C127.108 8.16049 127.486 7.59407 127.507 6.73395V6.60808C127.507 6.46123 127.569 6.39829 127.737 6.39829H127.863C127.989 6.39829 128.031 6.46123 128.031 6.65004V10.0695C128.031 10.2374 127.989 10.3003 127.863 10.3003H127.758C127.632 10.3003 127.527 10.2374 127.527 10.0486L127.507 9.92268C127.465 9.08354 127.087 8.68495 126.101 8.68495H124.57V12.2513C124.57 13.1114 124.78 13.4261 125.598 13.4261H126.751C128.241 13.4261 129.038 12.9646 129.646 12.0625C129.751 11.8947 130.107 11.2653 130.17 11.0136C130.233 10.8667 130.296 10.8457 130.443 10.8667L130.548 10.9087C130.674 10.9297 130.674 11.0136 130.653 11.1814L130.212 13.531C130.149 13.8457 130.044 13.9296 129.709 13.9296H121.634C121.466 13.9296 121.382 13.8876 121.382 13.7198V13.6149C121.382 13.489 121.424 13.4471 121.655 13.4471H121.78C122.661 13.4471 122.934 13.1534 122.934 12.2093V5.05567C122.934 4.06968 122.661 3.81794 121.717 3.81794H121.634C121.466 3.81794 121.382 3.755 121.382 3.58717V3.48228C121.382 3.35641 121.424 3.31445 121.655 3.31445H129.415C129.688 3.31445 129.793 3.35641 129.835 3.65011L130.128 5.76894C130.149 5.87383 130.107 5.93677 130.024 5.9997L129.94 6.02068C129.814 6.04166 129.772 6.02068 129.667 5.87383C129.583 5.66405 129.331 5.2235 129.247 5.1186C128.639 4.23751 128.031 3.88087 126.416 3.88087H124.927V3.79696V3.79696Z" fill="white"/>
<path d="M136.987 13.8666C136.924 14.0344 136.882 14.1183 136.714 14.1183H136.672C136.526 14.1183 136.442 14.0554 136.4 13.8666L133.023 5.24442C132.666 4.3843 132.394 3.85984 131.722 3.77593L131.596 3.75495C131.45 3.73397 131.387 3.69201 131.387 3.52419V3.41929C131.387 3.3144 131.45 3.25146 131.596 3.25146H135.582C135.729 3.25146 135.812 3.29342 135.812 3.41929V3.52419C135.812 3.67103 135.77 3.73397 135.582 3.73397H135.456C134.449 3.77593 134.407 4.4892 134.743 5.32834L137.239 11.7897L139.504 5.45421C139.84 4.51018 139.609 3.75495 138.833 3.73397H138.686C138.539 3.73397 138.476 3.67103 138.476 3.52419V3.41929C138.476 3.29342 138.539 3.25146 138.707 3.25146H141.706C141.937 3.25146 142 3.29342 142 3.46125V3.54516C142 3.69201 141.937 3.77593 141.727 3.77593L141.643 3.79691C140.909 3.81788 140.553 4.53115 140.217 5.41225L136.987 13.8666Z" fill="white"/>
<path d="M38.3843 29.4537C35.9302 29.4537 34.0635 28.4468 34.0635 25.6986V20.3281C34.0635 19.384 33.8118 19.0903 32.9938 19.0903H32.8679C32.7001 19.0903 32.6162 19.0484 32.6162 18.8806V18.7547C32.6162 18.6078 32.6582 18.5449 32.8889 18.5449H36.937C37.1048 18.5449 37.1887 18.5869 37.1887 18.7547V18.8806C37.1887 18.9855 37.1468 19.0484 36.958 19.0484H36.8741C35.9932 19.0484 35.7205 19.3211 35.7205 20.2861V25.6356C35.7205 27.5657 36.7063 28.7614 38.5521 28.7614C40.8174 28.7614 41.7403 27.5237 41.7403 24.9224V20.8316C41.7403 19.6777 41.4257 19.0484 40.5028 19.0484H40.4398C40.272 19.0484 40.1881 18.9855 40.1881 18.8386V18.7337C40.1881 18.6078 40.2511 18.5239 40.4189 18.5239H43.691C43.8587 18.5239 43.9636 18.5659 43.9636 18.6918V18.8386C43.9636 18.9435 43.9427 19.0064 43.7539 19.0064H43.628C42.7471 19.0064 42.4115 19.5099 42.4115 20.8316V24.7755C42.4325 27.7755 41.174 29.4537 38.3843 29.4537Z" fill="white"/>
<path d="M47.2984 20.4749V25.9503C47.2984 28.2579 47.7179 28.5936 48.6827 28.6985L48.8505 28.7195C48.9554 28.7404 48.9973 28.8034 48.9973 28.9292V29.0341C48.9973 29.16 48.9554 29.202 48.7666 29.202H45.2428C45.0331 29.202 44.9701 29.16 44.9701 28.9922V28.8873C44.9701 28.7614 45.0331 28.7195 45.2219 28.6775L45.3896 28.6565C46.1867 28.5936 46.6901 28.0901 46.6901 25.9083V21.1043C46.6901 19.5309 46.0818 19.0064 45.2219 19.0064H45.117C44.9702 19.0064 44.9072 18.9435 44.9072 18.8386V18.7337C44.9072 18.6078 44.9702 18.5239 45.2219 18.5239H47.1935C47.6969 18.5239 47.8018 18.5868 48.0535 18.9225L54.1991 26.5587V21.4399C54.1991 19.6148 53.7377 19.1323 52.7938 19.0274L52.626 19.0064C52.4792 18.9854 52.3953 18.9435 52.3953 18.7966V18.7127C52.3953 18.5659 52.4582 18.5029 52.647 18.5029H56.2127C56.4224 18.5029 56.4854 18.5449 56.4854 18.6708V18.7966C56.4854 18.9015 56.4224 18.9645 56.2756 19.0064L56.1078 19.0274C55.2688 19.0903 54.8703 19.6358 54.8703 21.4399V29.0761C54.8703 29.2229 54.8074 29.3278 54.6396 29.3278H54.5976C54.4718 29.3278 54.3879 29.2649 54.283 29.1181L47.2984 20.4749Z" fill="white"/>
<path d="M59.2118 20.3281C59.2118 19.3212 58.9391 19.0904 57.9743 19.0904H57.8904C57.7226 19.0904 57.6387 19.0275 57.6387 18.8596V18.7547C57.6387 18.6289 57.6806 18.5869 57.9113 18.5869H62.1483C62.3161 18.5869 62.379 18.6289 62.379 18.7967V18.9226C62.379 19.0484 62.3371 19.0904 62.1063 19.0904H62.0224C61.0786 19.0904 60.8269 19.3841 60.8269 20.3281V27.4818C60.8269 28.4468 61.0995 28.7195 62.0015 28.7195H62.1273C62.2951 28.7195 62.379 28.7825 62.379 28.9503V29.0762C62.379 29.202 62.3371 29.244 62.1063 29.244H57.8904C57.7226 29.244 57.6387 29.202 57.6387 29.0342V28.9083C57.6387 28.7825 57.7016 28.7405 57.9113 28.7405H58.0372C58.9601 28.7405 59.2118 28.4678 59.2118 27.5028V20.3281V20.3281Z" fill="white"/>
<path d="M69.07 29.1391C69.0071 29.3069 68.9442 29.3908 68.7973 29.3908H68.7554C68.6086 29.3908 68.5247 29.3279 68.4827 29.1391L65.1058 20.5169C64.7492 19.6568 64.4765 19.1323 63.8053 19.0484L63.6795 19.0274C63.5327 19.0064 63.4697 18.9645 63.4697 18.7966V18.6918C63.4697 18.5659 63.5327 18.5239 63.6795 18.5239H67.6647C67.8115 18.5239 67.8954 18.5659 67.8954 18.6918V18.7966C67.8954 18.9435 67.8535 19.0064 67.6647 19.0064H67.5179C66.5111 19.0484 66.4691 19.7617 66.8047 20.6008L69.3007 27.0622L71.5451 20.7267C71.8807 19.7826 71.6499 19.0274 70.8739 19.0064H70.727C70.5802 19.0064 70.5173 18.9435 70.5173 18.7966V18.6918C70.5173 18.5659 70.5802 18.5239 70.748 18.5239H73.7474C73.9781 18.5239 74.0411 18.5659 74.0411 18.7337V18.8176C74.0411 18.9645 73.9781 19.0484 73.7684 19.0484L73.6845 19.0694C72.9504 19.0903 72.5938 19.8036 72.2582 20.6847L69.07 29.1391Z" fill="white"/>
<path d="M78.6766 19.0484C78.362 19.0484 78.32 19.1323 78.32 19.405V23.4119H79.8931C80.858 23.4119 81.2355 22.8455 81.2565 21.9854V21.8595C81.2565 21.7127 81.3194 21.6497 81.4872 21.6497H81.6131C81.7389 21.6497 81.7809 21.7127 81.7809 21.9015V25.321C81.7809 25.4888 81.7389 25.5517 81.6131 25.5517H81.5082C81.3823 25.5517 81.2775 25.4888 81.2775 25.3L81.2565 25.1741C81.2145 24.335 80.837 23.9364 79.8512 23.9364H78.32V27.5027C78.32 28.3629 78.5298 28.6775 79.3478 28.6775H80.5014C81.9906 28.6775 82.7877 28.216 83.3959 27.3139C83.5008 27.1461 83.8574 26.5168 83.9203 26.265C83.9832 26.1182 84.0462 26.0972 84.193 26.1182L84.2979 26.1601C84.4237 26.1811 84.4237 26.265 84.4027 26.4328L83.9623 28.7824C83.8993 29.0971 83.7945 29.181 83.4589 29.181H75.3835C75.2157 29.181 75.1318 29.1391 75.1318 28.9712V28.8454C75.1318 28.7195 75.1738 28.6775 75.4045 28.6775H75.5304C76.4113 28.6775 76.684 28.3838 76.684 27.4398V20.2861C76.684 19.3001 76.4113 19.0484 75.4674 19.0484H75.3835C75.2157 19.0484 75.1318 18.9855 75.1318 18.8176V18.7127C75.1318 18.5869 75.1738 18.5449 75.4045 18.5449H83.1652C83.4379 18.5449 83.5428 18.5869 83.5847 18.8806L83.8784 20.9994C83.8993 21.1043 83.8574 21.1672 83.7735 21.2302L83.6896 21.2511C83.5637 21.2721 83.5218 21.2511 83.4169 21.1043C83.333 20.8945 83.0813 20.454 82.9974 20.3491C82.3891 19.468 81.7809 19.1113 80.1658 19.1113L78.6766 19.0484Z" fill="white"/>
<path d="M88.7443 24.1462V27.4608C88.7443 28.4258 89.017 28.6985 89.9189 28.6985H90.0238C90.1916 28.6985 90.2755 28.7615 90.2755 28.9293V29.0342C90.2755 29.1601 90.2335 29.202 90.0028 29.202H85.7869C85.6191 29.202 85.5352 29.1601 85.5352 28.9922V28.8664C85.5352 28.7405 85.5981 28.6985 85.8078 28.6985H85.9127C86.8356 28.6985 87.0873 28.4258 87.0873 27.4608V20.3071C87.0873 19.3211 86.8146 19.0694 85.8708 19.0694H85.7869C85.6191 19.0694 85.5352 19.0065 85.5352 18.8386V18.7337C85.5352 18.6079 85.5771 18.5659 85.8078 18.5659H90.5482C92.6037 18.5659 94.03 19.447 94.03 21.2512C94.03 22.6357 93.0442 23.6637 91.4081 23.9154C91.6808 24.0833 91.8696 24.2931 92.0793 24.6077L94.2188 27.6286C94.6802 28.3209 95.0787 28.6985 95.9387 28.6985C96.0855 28.6985 96.1694 28.7615 96.1694 28.9083V29.0342C96.1694 29.1601 96.1065 29.202 95.9387 29.202H93.8622C93.4427 29.202 93.3378 29.1391 93.1491 28.8454L90.4013 24.7965C90.0448 24.2931 89.7931 24.1042 89.2058 24.1042H88.7443V24.1462V24.1462ZM88.7443 23.6217H89.9189C91.513 23.6217 92.4149 22.6777 92.4149 21.377C92.4149 20.0344 91.7228 19.0694 90.0867 19.0694H89.1428C88.7863 19.0694 88.7233 19.1533 88.7233 19.489V23.6217H88.7443Z" fill="white"/>
<path d="M98.8546 20.5591C98.8546 21.7339 99.9033 22.2164 101.414 22.9087C103.029 23.643 104.476 24.3562 104.476 26.4121C104.476 28.2792 103.008 29.433 101.12 29.433C100.008 29.433 99.2112 29.1184 98.5819 28.7827C98.4351 28.7198 98.3092 28.6778 98.2463 28.6778C98.1624 28.6778 98.1205 28.7407 98.0785 28.8456L97.9527 29.1183C97.9317 29.2023 97.8897 29.2232 97.7849 29.2232H97.6171C97.5332 29.2232 97.5122 29.1603 97.5122 29.0554L97.4912 26.2233C97.4912 26.0555 97.5332 25.9926 97.659 25.9926H97.8688C97.9736 25.9926 98.0156 26.0135 98.0366 26.1394C98.3931 27.9855 99.5468 28.8247 101.099 28.8247C102.462 28.8247 103.175 28.0694 103.175 26.9576C103.175 25.6989 102.211 25.1324 100.826 24.5031C98.9385 23.6639 97.638 23.0346 97.638 21.0836C97.638 19.2794 99.1063 18.2725 100.91 18.2725C101.875 18.2725 102.504 18.5242 103.071 18.7969C103.196 18.8599 103.301 18.9018 103.364 18.9018C103.448 18.9018 103.49 18.8599 103.532 18.7759L103.658 18.5032C103.679 18.4193 103.721 18.3983 103.805 18.3983H103.951C104.035 18.3983 104.077 18.4193 104.077 18.5452L104.119 21.0626C104.119 21.2095 104.098 21.2934 103.951 21.2934H103.742C103.637 21.2934 103.574 21.2514 103.532 21.1255C103.196 19.6361 102.294 18.8389 100.847 18.8389C99.6306 18.8808 98.8546 19.4892 98.8546 20.5591Z" fill="white"/>
<path d="M107.266 20.3281C107.266 19.3212 106.993 19.0904 106.028 19.0904H105.966C105.798 19.0904 105.714 19.0275 105.714 18.8596V18.7547C105.714 18.6289 105.756 18.5869 105.987 18.5869H110.223C110.391 18.5869 110.454 18.6289 110.454 18.7967V18.9226C110.454 19.0484 110.412 19.0904 110.182 19.0904H110.098C109.154 19.0904 108.902 19.3841 108.902 20.3281V27.4818C108.902 28.4468 109.175 28.7195 110.077 28.7195H110.202C110.37 28.7195 110.454 28.7825 110.454 28.9503V29.0762C110.454 29.202 110.412 29.244 110.182 29.244H105.966C105.798 29.244 105.714 29.202 105.714 29.0342V28.9083C105.714 28.7825 105.777 28.7405 105.987 28.7405H106.112C107.035 28.7405 107.287 28.4678 107.287 27.5028V20.3281H107.266Z" fill="white"/>
<path d="M114.858 19.0487C113.851 19.0487 113.012 19.3634 112.467 20.2235C112.383 20.3703 112.11 20.8528 112.006 21.0416C111.922 21.1885 111.859 21.2095 111.733 21.1675L111.628 21.1256C111.502 21.0836 111.481 20.9997 111.544 20.8109L112.131 18.5242C112.173 18.3983 112.215 18.2935 112.362 18.2935C112.593 18.2935 113.117 18.5032 113.788 18.5032H120.479C121.256 18.5032 121.717 18.2935 121.948 18.2935C122.053 18.2935 122.115 18.3564 122.157 18.5032L122.661 20.7899C122.703 20.9577 122.682 21.0416 122.577 21.0836L122.472 21.1046C122.346 21.1465 122.241 21.1046 122.157 20.9367C122.095 20.7899 121.885 20.4333 121.801 20.2864C121.235 19.4053 120.479 19.0277 119.326 19.0277H118.34C118.004 19.0277 117.921 19.1326 117.921 19.4892V27.4191C117.921 28.3841 118.193 28.6568 119.095 28.6568H119.2C119.368 28.6568 119.452 28.7198 119.452 28.8876V28.9925C119.452 29.1184 119.41 29.1603 119.179 29.1603H114.963C114.795 29.1603 114.711 29.1184 114.711 28.9505V28.8247C114.711 28.6988 114.774 28.6568 114.984 28.6568H115.11C116.033 28.6568 116.284 28.3841 116.284 27.4191V19.4892C116.284 19.1326 116.222 19.0277 115.886 19.0277H114.837V19.0487H114.858Z" fill="white"/>
<path d="M125.2 20.2022C124.738 19.405 124.444 19.0694 123.794 19.0274C123.626 19.0274 123.563 18.9645 123.563 18.8176V18.7127C123.563 18.5869 123.626 18.5449 123.794 18.5449H127.591C127.717 18.5449 127.8 18.5869 127.8 18.7127V18.8176C127.8 18.9645 127.758 19.0484 127.57 19.0484H127.444C126.752 19.0694 126.647 19.5519 126.94 20.0764L129.227 23.9993L131.303 20.5798C131.786 19.8036 131.66 19.1113 130.926 19.0694H130.758C130.59 19.0694 130.527 19.0274 130.527 18.8596V18.7547C130.527 18.6288 130.59 18.5869 130.758 18.5869H133.778C134.009 18.5869 134.051 18.6288 134.051 18.7967V18.8806C134.051 19.0274 133.988 19.0904 133.82 19.1113C133.065 19.1323 132.583 19.7197 131.932 20.7267L129.478 24.6287V27.5237C129.478 28.4887 129.751 28.7615 130.674 28.7615H130.779C130.947 28.7615 131.052 28.8244 131.052 28.9922V29.0971C131.052 29.223 130.989 29.2649 130.779 29.2649H126.542C126.374 29.2649 126.29 29.223 126.29 29.0552V28.9293C126.29 28.8034 126.353 28.7615 126.563 28.7615H126.668C127.591 28.7615 127.842 28.4887 127.842 27.5237V24.7755L125.2 20.2022Z" fill="white"/>
<path d="M10.6762 26.2652C8.01241 26.2652 6.20857 23.8107 6.20857 21.587C6.20857 18.9857 6.20857 19.0696 6.20857 16.4683H0V20.0766C0 21.7339 0 23.2863 0.104874 24.7548C0.272674 27.2512 1.36337 28.7407 2.72674 30.0414C4.57253 31.8036 7.69779 32.5378 10.886 32.5378C14.0742 32.5378 17.1994 31.8036 19.0452 30.0414C20.3876 28.7407 21.4993 27.2722 21.6671 24.7548C21.7719 23.2863 21.7719 21.7548 21.7719 20.0766V16.4683H15.5634C15.5634 19.0696 15.5634 18.9857 15.5634 21.587C15.5634 22.9716 14.5776 26.2652 10.6762 26.2652Z" fill="white"/>
<path d="M0 0H6.20857L15.5634 8.18162V0H21.7719V15.7129H15.5634L6.18759 7.97183V15.7129H0V0Z" fill="white"/>
<path d="M7.19439 22.699C6.92172 21.9647 6.92172 21.1675 6.94269 20.2655C6.96366 19.4473 6.94269 11.7482 6.94269 9.56641C6.94269 9.56641 10.8021 12.6083 8.53678 16.4474C9.14505 16.0068 9.8582 15.6921 10.9908 15.6921C12.3542 15.6921 13.382 16.0488 14.2629 17.1606C14.7663 17.8739 15.039 18.5033 15.039 19.4263C15.039 20.7899 14.6195 21.8179 13.382 22.4053C12.501 22.7829 11.8928 22.8248 11.0328 22.5521C10.2357 22.2584 9.62748 21.4822 9.62748 20.4123C9.62748 19.3844 10.2777 18.6291 11.1377 18.6291C11.9137 18.6501 12.3752 19.1536 12.3542 19.9927C12.3542 20.4962 12.0606 20.7899 11.7669 21.1046C12.7318 21.1885 13.34 20.2445 13.3191 19.4263C13.2352 17.9159 12.0186 17.4543 10.865 17.5382C9.64845 17.6431 8.66263 18.5452 8.53678 19.8669C8.43191 20.9787 8.55776 21.7549 9.1031 22.5731C10.3616 24.2723 12.4801 24.3143 14.4937 23.1605C12.2284 27.0835 7.90754 25.1744 7.19439 22.699Z" fill="white"/>
<path d="M14.8081 0V6.58725C14.8081 6.58725 11.9765 4.36353 12.7945 1.0699C12.1862 1.3636 9.92094 2.45449 7.06836 0H14.8081Z" fill="white"/>
</svg>
